<svg width="116" height="32" viewBox="0 0 116 32" fill="none" xmlns="http://www.w3.org/2000/svg">
<g id="Social">
<g id="Group 431">
<circle id="Ellipse 731" cx="16" cy="16" r="16" fill="#2E80CE"/>
<path id="Vector" d="M16.9898 21.9358V16.0302H18.7647L19 13.9517H16.9898L16.9928 12.9113C16.9928 12.3692 17.0477 12.0789 17.8778 12.0789H18.9876V10H17.2122C15.0798 10 14.3293 11.0082 14.3293 12.7041V13.9519H13V16.0306H14.3293V21.8521C14.8472 21.9489 15.3826 22 15.9307 22C16.2849 22 16.6386 21.9786 16.9898 21.9358Z" fill="white"/>
</g>
<g id="Group 432">
<circle id="Ellipse 731_2" cx="58" cy="16" r="16" fill="white"/>
<path id="Vector_2" d="M66 11.4206C65.405 11.6615 64.771 11.8212 64.11 11.8988C64.79 11.524 65.309 10.9351 65.553 10.2252C64.919 10.5742 64.219 10.8206 63.473 10.9582C62.871 10.3665 62.013 10 61.077 10C59.261 10 57.799 11.3606 57.799 13.0286C57.799 13.2686 57.821 13.4994 57.875 13.7191C55.148 13.5963 52.735 12.3898 51.114 10.552C50.831 11.0052 50.665 11.524 50.665 12.0825C50.665 13.1311 51.25 14.0606 52.122 14.5988C51.595 14.5895 51.078 14.4483 50.64 14.2258C50.64 14.2351 50.64 14.2471 50.64 14.2591C50.64 15.7305 51.777 16.9526 53.268 17.2342C53.001 17.3015 52.71 17.3338 52.408 17.3338C52.198 17.3338 51.986 17.3228 51.787 17.2822C52.212 18.4812 53.418 19.3628 54.852 19.3914C53.736 20.1972 52.319 20.6828 50.785 20.6828C50.516 20.6828 50.258 20.6717 50 20.6412C51.453 21.5062 53.175 22 55.032 22C61.068 22 64.368 17.3846 64.368 13.384C64.368 13.2502 64.363 13.1209 64.356 12.9926C65.007 12.5662 65.554 12.0335 66 11.4206Z" fill="#2E80CE"/>
</g>
<g id="Group 433">
<circle id="Ellipse 731_3" cx="100" cy="16" r="16" fill="white"/>
<path id="Vector_3" d="M94 11.3939C94 10.9899 94.1464 10.6566 94.4392 10.3939C94.732 10.1313 95.1126 10 95.5811 10C96.0412 10 96.4134 10.1293 96.6979 10.3879C96.9907 10.6545 97.1371 11.002 97.1371 11.4303C97.1371 11.8182 96.9949 12.1414 96.7104 12.4C96.4176 12.6667 96.0328 12.8 95.556 12.8H95.5434C95.0833 12.8 94.7111 12.6667 94.4266 12.4C94.1422 12.1333 94 11.798 94 11.3939ZM94.1631 22V13.903H96.9488V22H94.1631ZM98.4923 22H101.278V17.4788C101.278 17.196 101.311 16.9778 101.378 16.8242C101.495 16.5495 101.673 16.3172 101.912 16.1273C102.15 15.9374 102.449 15.8424 102.809 15.8424C103.746 15.8424 104.214 16.4525 104.214 17.6727V22H107V17.3576C107 16.1616 106.707 15.2545 106.122 14.6364C105.536 14.0182 104.762 13.7091 103.8 13.7091C102.721 13.7091 101.88 14.1576 101.278 15.0545V15.0788H101.265L101.278 15.0545V13.903H98.4923C98.509 14.1616 98.5174 14.9656 98.5174 16.3152C98.5174 17.6646 98.509 19.5596 98.4923 22Z" fill="#2E80CE"/>
</g>
</g>
</svg>
